<svg width="360" height="360" viewBox="0 0 360 360" fill="none" xmlns="http://www.w3.org/2000/svg">
<path d="M180 0C279.4 0 360 80.6 360 180C360 279.4 279.4 360 180 360C80.6 360 0 279.45 0 180C0 80.55 80.6 0 180 0Z" fill="#2FBDF4"/>
<path d="M285.589 113.929L180 54L74.4111 113.929L105.368 131.447L180 89L254.632 131.447L285.589 113.929Z" fill="white"/>
<path d="M260 218.952V141.049L291 123.506V236.495L260 218.952Z" fill="white"/>
<path d="M105.368 228.553L180 271L254.632 228.553L285.588 246.072L180 306L74.4116 246.072L105.368 228.553Z" fill="white"/>
<path d="M100 141.049V218.952L69 236.495V123.506L100 141.049Z" fill="white"/>
<path opacity="0.6" d="M180.046 199.113L132 168.222V130L180.046 160.891V199.113Z" fill="white"/>
<path d="M227.999 130L179.953 160.891V199.113L227.999 168.222V130Z" fill="white"/>
<path opacity="0.6" d="M179.953 160.886L227.999 191.778V230L179.953 199.108V160.886Z" fill="white"/>
<path d="M179.953 160.892V199.109L209.68 180L179.953 160.892Z" fill="#D5F2FD"/>
<path d="M132 230L180.046 199.108V160.886L132 191.778V230Z" fill="white"/>
</svg>
